8_ID_stride3.mot
nRows=7
nColumns=38

name 8_ID_stride3.mot
datacolumns 38
datarows 7
range 1.1000000000 1.1300000000
endheader
time	pelvis_tilt_moment	pelvis_list_moment	pelvis_rotation_moment	pelvis_tx_force	pelvis_ty_force	pelvis_tz_force	hip_flexion_r_moment	hip_adduction_r_moment	hip_rotation_r_moment	knee_angle_r_moment	ankle_angle_r_moment	subtalar_angle_r_moment	mtp_angle_r_moment	hip_flexion_l_moment	hip_adduction_l_moment	hip_rotation_l_moment	knee_angle_l_moment	ankle_angle_l_moment	subtalar_angle_l_moment	mtp_angle_l_moment	lumbar_extension_moment	lumbar_bending_moment	lumbar_rotation_moment	arm_flex_r_moment	arm_add_r_moment	arm_rot_r_moment	elbow_flex_r_moment	pro_sup_r_moment	wrist_flex_r_moment	wrist_dev_r_moment	arm_flex_l_moment	arm_add_l_moment	arm_rot_l_moment	elbow_flex_l_moment	pro_sup_l_moment	wrist_flex_l_moment	wrist_dev_l_moment
        1.1000000000	       16.3798404102	      -22.0708900940	       28.9732562000	      -19.7098883149	      -67.6014736608	      -35.6403990652	      -18.1992230066	       -6.5080710910	       -1.2052463331	       -1.4272895153	        2.6354881070	       -0.5318370923	        0.1490876719	       14.6600533701	      -17.7828876809	      -13.1631891194	      -12.1015500137	     -126.5507648480	       21.2226711071	       -0.0723923365	       -8.0129171923	       -5.5485870688	       37.9824260798	        5.3064318515	        4.3874744303	        3.8554023852	        2.7136854694	        0.0706410249	        0.4687975421	       -0.1037897149	       -2.8621216431	       -2.3865417975	       -3.0971930949	        2.0015753456	       -0.1539900357	       -0.3251802186	       -0.2283441769	
        1.1050000000	        0.6631713013	      -11.9992328896	       23.0844800549	       -3.3064234521	      -36.1529182880	      -27.7774297519	      -18.3336597780	       -5.6706815476	       -1.6515134413	       -2.0836122717	        2.7093808559	       -0.5481979492	        0.1529736173	       22.0167473094	      -20.2678248662	       -5.8265485639	      -11.8658848181	     -109.0490070684	       19.4818749764	       -0.0752442868	       -7.4906455497	       -1.1726819011	       36.8914380403	        4.6505248884	        3.6729851404	        3.5193036897	        2.2487482770	        0.0716315590	        0.4311497902	       -0.0698084588	       -3.3593050489	       -1.9895330089	       -2.7998865823	        1.5300536738	       -0.1368347817	       -0.3072108807	       -0.1815256268	
        1.1100000000	       -9.7512409187	       -5.7181196089	       20.1454690569	       23.4040117557	       -1.4921526175	      -22.1772701945	      -18.3435231874	       -5.2538202828	       -1.6969401489	       -2.8961761716	        2.7837999178	       -0.6012208114	        0.1559314058	       25.2954166570	      -20.2718795364	       -1.1121611795	      -13.6238510248	      -93.1804451085	       17.1509540145	       -0.0733382381	       -5.9567735049	        2.1413681629	       35.7192926355	        4.1195977434	        2.8927936373	        3.1306222852	        1.8744003683	        0.0702561365	        0.3912498458	       -0.0452923646	       -3.7701474754	       -1.4717624368	       -2.4496663725	        1.1143037136	       -0.1200332163	       -0.2843198845	       -0.1403176151	
        1.1150000000	       -9.8733019116	       -1.4964925785	       22.8369976099	       57.3929971429	       25.5550958149	      -23.1900868043	      -18.3659551974	       -4.8459571612	       -1.4241614638	       -3.7440099399	        2.8495573369	       -0.6674589265	        0.1565973550	       25.8783340459	      -13.7868117906	       -1.2796438052	      -16.9978639989	      -80.3638535978	       15.1638679171	       -0.0635795951	       -4.2550929313	        3.5090177414	       34.4859351127	        3.7275520976	        2.1152606955	        2.7231990640	        1.5715632731	        0.0679029046	        0.3512586117	       -0.0283509665	       -4.0851989156	       -0.9147053455	       -2.0873847471	        0.7324841268	       -0.1041742110	       -0.2598579795	       -0.1037887109	
        1.1200000000	       -8.1954899541	        4.5724287808	       27.8464420011	       90.9294982657	       31.5731391039	      -26.9001916714	      -18.5207235256	       -4.0836024291	       -1.1160442192	       -4.5862866292	        2.8668788934	       -0.7285454099	        0.1560836889	       27.4150357000	       -2.8189835379	       -2.1634364467	      -18.0719520969	      -68.5077677400	       13.6745747296	       -0.0459954142	       -2.5768275044	        3.4951685587	       33.0943128175	        3.4033526286	        1.3876087589	        2.3197511438	        1.2918916717	        0.0655936277	        0.3116505302	       -0.0142958726	       -4.3191863442	       -0.3890421320	       -1.7368138293	        0.3556056751	       -0.0888860039	       -0.2356825558	       -0.0692508365	
        1.1250000000	        0.4670952896	       15.7022858703	       33.3185520298	      116.3661722494	       21.9505689860	      -37.1597356885	      -19.4166833050	       -2.2786609103	       -0.9922646490	       -5.4414566233	        2.8597652400	       -0.7671229157	        0.1516444932	       33.3908571467	        9.3719866824	       -3.6444089296	      -17.1051143331	      -56.7335020915	       12.5008338234	       -0.0180581980	       -1.0909579124	        1.3723299817	       31.4066335642	        3.1078477055	        0.7415601951	        1.9329881917	        1.0116940929	        0.0639536791	        0.2724116777	       -0.0011183562	       -4.4775749040	        0.0581273951	       -1.4110244557	       -0.0310804484	       -0.0738974569	       -0.2126430342	       -0.0353682268	
        1.1300000000	        6.7991675108	       31.1426115648	       35.6719323222	      128.0842804082	      -13.4094905374	      -47.8841918553	      -21.5998746887	        0.8838359456	       -1.1557879250	       -6.4375050126	        2.7725313219	       -0.7786123506	        0.1439979017	       43.5441471871	       17.8743226495	       -2.8491751083	      -11.9398523885	      -44.1948618633	       11.0163917010	        0.0196165340	        0.0764363555	       -2.1616361767	       29.2415794926	        2.7668352786	        0.1860208441	        1.5656352240	        0.6984170222	        0.0629877085	        0.2325086511	        0.0141846675	       -4.5694166249	        0.4055365122	       -1.1092995369	       -0.4383027004	       -0.0585206526	       -0.1902539211	       -0.0002513062	
